<svg version="1.0" xmlns="http://www.w3.org/2000/svg" width="700pt" height="700pt" viewBox="0 0 700 700"><g transform="translate(0.000000,700.000000) scale(0.100000,-0.100000)" fill="#000" stroke="none"><path d="M476 6770c-104-18-197-96-225-190-8-26-11-257-11-782 0-827-2-797 67-877 19-23 58-54 87-69l51-27h770 770l41 22c63 34 97 66 129 125l30 53 3 754c3 831 5 803-59 889-21 28-51 52-97 74l-67 33-720 2c-396 0-742-3-769-7zm1520-192 34-38v-735c0-808 2-778-60-810-25-13-126-15-757-15-713 0-729 1-761 20-65 40-63 15-60 813 3 676 4 724 21 748 41 61 12 59 815 56l734-2 34-37z"/><path d="M1010 6436l-155-32-3-82c-2-45 1-82 6-82 5 0 76 14 157 30 81 17 150 30 152 30 1 0 3-234 3-520v-520h-150-150v-75-75h390 390v75 75h-150-150v605 605l-92-1c-62-1-146-12-248-33z"/><path d="M2763 6770c-93-14-174-76-214-165-17-38-19-86-19-805v-765l24-50c30-65 104-131 169-150 76-23 1479-22 1555 0 74 22 131 70 167 140l30 59 3 744c2 643 0 752-13 797-20 69-87 144-157 176l-53 24-720 1c-396 1-743-2-772-6zm1487-165c15-8 38-27 49-41 21-27 21-31 21-761 0-670-1-737-17-763-37-64-3-61-814-58-721 3-737 3-759 23-51 45-50 35-50 797 0 797-3 764 70 8e2 32 17 89 18 753 18 614 0 722-2 747-15z"/><path d="M3447 6490c-212-54-333-265-352-619-16-282 46-529 164-654 92-98 239-143 378-118 221 39 347 214 384 534 13 112 7 327-11 417-46 224-144 369-287 424-56 21-217 30-276 16zm178-141c95-24 169-128 2e2-282 37-187 28-470-21-615-47-140-111-203-214-210-88-6-122 4-176 51-95 84-136 235-136 502 0 172 11 264 43 358 54 162 163 231 304 196z"/><path d="M5125 6770c-70-10-125-41-174-96-74-84-72-57-69-896l3-744 30-59c36-70 93-118 167-140 76-22 1479-23 1555 0 65 19 139 85 169 150l24 50v756c0 838 2 808-66 887-19 23-60 53-92 69l-57 28-720 1c-396 1-743-1-770-6zm1484-168c19-9 43-33 53-52 17-33 18-75 18-748 0-762 1-752-50-797-22-20-38-20-759-23-811-3-777-6-814 58-16 26-17 93-17 762 0 810-4 757 64 799 30 18 60 19 751 19 666 0 723-1 754-18z"/><path d="M5769 6487c-148-42-256-172-311-372-19-70-21-107-22-305-1-259 10-330 74-465 69-147 167-224 318-247 191-30 360 59 447 235 66 136 78 204 79 452 1 259-11 328-79 471-53 109-123 180-213 215-70 27-223 36-293 16zm204-143c60-20 126-92 156-171 38-99 54-237 48-428-10-349-96-504-280-505-207-1-299 201-284 624 8 235 42 350 130 434 61 59 143 76 230 46z"/><path d="M455 4441c-55-14-112-50-153-96-76-86-73-49-70-901l3-759 30-53c32-59 66-91 129-125l41-22 761-3c750-2 763-2 817 18 65 24 147 106 169 167 10 30 13 190 13 793 0 719-1 757-19 804-25 66-84 128-149 157l-52 24-745 2c-410 0-758-2-775-6zm1519-184c57-38 56-24 56-792 0-778 2-756-62-795-32-20-45-20-765-18l-733 3-32 33-33 32-3 733-2 733 23 35c13 19 38 39 57 46 26 9 213 12 750 10 675-2 718-3 744-20z"/><path d="M2735 4439c-55-13-128-63-160-109-56-80-54-54-55-871v-756l31-61c51-104 128-153 252-160l77-5v-158-159h-73c-90 0-158-30-216-96-74-84-71-49-71-884 0-837-3-8e2 73-886 23-26 63-57 92-70l50-24h767 766l63 33c75 38 132 110 148 188 6 28 11 117 11 199v150h189 189l4-177c3-164 5-182 27-227 29-60 83-115 136-141 39-19 67-20 815-23l774-2 53 25c29 15 70 46 92 71 74 84 71 49 71 884 0 829 2 799-66 879-60 70-114 94-216 99l-88 4v158 157l83 5c123 7 198 51 252 150l30 53v780 780l-23 42c-30 57-80 105-138 134l-49 24h-765-765l-57-28c-64-32-111-80-142-146-20-45-21-62-24-538l-3-493h-189-189l-3 493-3 492-28 57c-32 64-80 111-146 142-45 21-56 21-791 23-436 1-761-3-785-8zm1526-182c14-9 31-29 37-43 9-18 12-162 12-499v-475h-608c-649 0-663-1-731-49-17-12-43-43-58-69-28-47-28-48-31-259l-3-213h-46c-59 0-106 23-127 63-16 29-17 94-14 763 3 716 3 732 23 754 45 51 30 50 8e2 47 669-2 722-3 746-20zm2356-3c15-11 34-32 40-45 10-18 13-194 13-752v-727l-34-37c-31-34-39-37-99-41l-65-4-4 208c-4 234-9 255-73 317-69 67-67 67-747 67h-608v448c0 246 3 464 7 485 7 43 50 93 86 1e2 12 2 345 4 739 3 711-1 717-1 745-22zm-377-2249V1e3H4675 3110v1005 1005h1565 1565V2005zm-3358-543 3-529 30-49c19-30 49-60 79-79l49-30 634-3 633-3V604 438l-34-34-34-34h-731c-803 0-774-2-806 60-23 44-23 1456 0 15e2 21 40 60 59 122 60h52l3-528zm3728 513c62-32 60-4 60-795 0-625-2-725-15-750-32-62-3-60-804-60h-729l-31 26c-42 35-51 77-51 237v137h608c681 0 681 0 748 67 71 71 69 50 72 631l3 522h55c30 0 68-7 84-15z"/><path d="M3330 2675v-115l223 2 222 3 3 113 3 112h-226-225v-115z"/><path d="M4002 2678l3-113h110 110v110 110l-113 3-113 3 3-113z"/><path d="M4450 2675v-115h110 110v115 115h-110-110v-115z"/><path d="M49e2 2675v-115h110 110v115 115h-110-110v-115z"/><path d="M5350 2675v-115h110 110v115 115h-110-110v-115z"/><path d="M5792 2678l3-113h110 110l3 113 3 112h-116-116l3-112z"/><path d="M3330 2230v-110h110 110v110 110h-110-110v-110z"/><path d="M3780 2230v-110h110 110v110 110h-110-110v-110z"/><path d="M4230 2230v-110h110 110v110 110h-110-110v-110z"/><path d="M4670 2230v-110h115 115v110 110h-115-115v-110z"/><path d="M5120 2230v-110h115 115v110 110h-115-115v-110z"/><path d="M5570 2005v-335h225 225v335 335h-225-225v-335z"/><path d="M3330 1780v-110h110 110v110 110h-110-110v-110z"/><path d="M3780 1780v-110h110 110v110 110h-110-110v-110z"/><path d="M4230 1780v-110h110 110v110 110h-110-110v-110z"/><path d="M4670 1780v-110h115 115v110 110h-115-115v-110z"/><path d="M5120 1780v-110h115 115v110 110h-115-115v-110z"/><path d="M3330 1330v-110h225 225v110 110h-225-225v-110z"/><path d="M4e3 1330v-110h675 675v110 110h-675-675v-110z"/><path d="M5570 1330v-110h225 225v110 110h-225-225v-110z"/><path d="M414 2144c-58-21-120-77-152-138l-27-51v-775-775l27-51c28-53 76-101 131-131 30-17 87-18 797-21 546-2 777 0 806 8 66 19 134 77 169 145l30 59v765 766l-28 57c-33 67-91 121-155 142-66 23-1534 22-1598 0zm1561-176c56-44 55-28 55-788 0-760 1-744-55-788l-28-22h-729c-809 0-775-3-804 65-12 29-14 153-14 743 0 502 3 719 11 741 7 18 26 41 43 52 30 18 61 19 762 19h731l28-22z"/></g></svg>