<svg xmlns:dc="http://purl.org/dc/elements/1.1/" xmlns:cc="http://creativecommons.org/ns#" xmlns:rdf="http://www.w3.org/1999/02/22-rdf-syntax-ns#" xmlns:svg="http://www.w3.org/2000/svg" xmlns="http://www.w3.org/2000/svg" xmlns:sodipodi="http://sodipodi.sourceforge.net/DTD/sodipodi-0.dtd" xmlns:inkscape="http://www.inkscape.org/namespaces/inkscape" width="60" height="60" id="svg15" sodipodi:docname="original.svg" inkscape:version="0.92.5 (2060ec1f9f, 2020-04-08)"><defs id="defs19" /><sodipodi:namedview pagecolor="#ffffff" bordercolor="#666666" borderopacity="1" objecttolerance="10" gridtolerance="10" guidetolerance="10" inkscape:pageopacity="0" inkscape:pageshadow="2" inkscape:window-width="1920" inkscape:window-height="1022" id="namedview17" showgrid="false" inkscape:zoom="11.125146" inkscape:cx="19.921139" inkscape:cy="27.823979" inkscape:window-x="0" inkscape:window-y="0" inkscape:window-maximized="1" inkscape:current-layer="svg15" /><g id="g13"><title id="title2">Layer 1</title><rect transform="matrix(0.910844 0 0 0.910844 0.544819 0.207927)" height="16.914911" id="rect832" rx="1.92661" width="16.914911" x="2.366832" y="2.624805" stroke-dashoffset="0" stroke-linecap="round" stroke-linejoin="round" stroke-width="1.5" stroke="#05487a" fill-rule="evenodd" fill="none" style="fill:#fff;fill-opacity:1" /><rect transform="matrix(0.910844 0 0 0.910844 0.544819 0.207927)" height="16.914911" id="rect833" rx="1.92661" width="16.914911" x="23.901236" y="2.624805" stroke-dashoffset="0" stroke-linecap="round" stroke-linejoin="round" stroke-width="1.5" stroke="#05487a" fill-rule="evenodd" fill="none" style="fill:#fff;fill-opacity:1" /><rect height="15.406845" id="rect835" rx="1.754841" width="15.406845" x="2.700635" y="22.610872" stroke-dashoffset="0" stroke-linecap="round" stroke-linejoin="round" stroke-width="1.5" stroke="#05487a" fill-rule="evenodd" fill="none" style="fill:#fff;fill-opacity:1" /><rect height="15.406845" id="rect836" rx="1.754841" width="15.406845" x="22.31512" y="22.610872" stroke-dashoffset="0" stroke-linecap="round" stroke-linejoin="round" stroke-width="1.5" stroke="#05487a" fill-rule="evenodd" fill="none" style="fill:#fff;fill-opacity:1" /><rect transform="matrix(0.910844 0 0 0.910844 0.544819 0.207927)" height="16.914911" rx="1.92661" width="16.914911" x="46.066102" y="2.624805" stroke-dashoffset="0" stroke-linecap="round" stroke-linejoin="round" stroke-width="1.5" stroke="#05487a" fill-rule="evenodd" fill="none" id="svg_1" style="fill:#fff;fill-opacity:1" /><rect height="15.406845" rx="1.754841" width="15.406845" x="42.503852" y="22.610872" stroke-dashoffset="0" stroke-linecap="round" stroke-linejoin="round" stroke-width="1.5" stroke="#05487a" fill-rule="evenodd" fill="none" id="svg_2" style="fill:#fff;fill-opacity:1" /><rect height="15.406845" rx="1.754841" width="15.406845" x="2.700635" y="42.18507" stroke-dashoffset="0" stroke-linecap="round" stroke-linejoin="round" stroke-width="1.5" stroke="#05487a" fill-rule="evenodd" fill="none" id="svg_3" style="fill:#fff;fill-opacity:1" /><rect height="15.406845" rx="1.754841" width="15.406845" x="22.315119" y="42.18507" stroke-dashoffset="0" stroke-linecap="round" stroke-linejoin="round" stroke-width="1.5" stroke="#05487a" fill-rule="evenodd" fill="none" id="svg_4" style="fill:#fff;fill-opacity:1" /><rect height="15.406845" rx="1.754841" width="15.406845" x="42.503852" y="42.185071" stroke-dashoffset="0" stroke-linecap="round" stroke-linejoin="round" stroke-width="1.5" stroke="#05487a" fill-rule="evenodd" fill="none" id="svg_5" style="fill:#fff;fill-opacity:1" /></g><text style="font-style:normal;font-weight:400;font-size:32px;line-height:1.25;font-family:sans-serif;letter-spacing:0;word-spacing:0;fill:#000;fill-opacity:1;stroke:none" x="5.4830737" y="16.225298" id="text25"><tspan sodipodi:role="line" id="tspan23" x="5.4830737" y="16.225298" style="font-size:16px;fill:red">1</tspan></text><text id="text39" y="16.135412" x="25.437866" style="font-style:normal;font-weight:400;font-size:32px;line-height:1.25;font-family:sans-serif;letter-spacing:0;word-spacing:0;fill:#000;fill-opacity:1;stroke:none"><tspan style="font-size:16px;fill:red" y="16.135412" x="25.437866" id="tspan37" sodipodi:role="line">0</tspan></text><text style="font-style:normal;font-weight:400;font-size:32px;line-height:1.25;font-family:sans-serif;letter-spacing:0;word-spacing:0;fill:#000;fill-opacity:1;stroke:none" x="45.437866" y="16.135412" id="text43"><tspan sodipodi:role="line" id="tspan41" x="45.437866" y="16.135412" style="font-size:16px;fill:red">0</tspan></text><rect style="fill:#fff;fill-opacity:1;stroke:#fff;stroke-width:0;stroke-linecap:butt;stroke-linejoin:miter;stroke-miterlimit:0;stroke-dasharray:none;stroke-opacity:1;paint-order:markers stroke fill" id="rect834" width="26.879997" height="17.280003" x="27.143852" y="34.177715" rx="0" ry="0" /><g id="g955" transform="translate(-0.523853)"><path d="M27.143852 34.177715H54.023851V51.457716H27.143852z" id="rect951" style="fill:#fff;stroke:#fff;stroke-opacity:1" inkscape:connector-curvature="0" /><path id="path112" d="m44.423853 38.017715h-1.92v-1.92h1.92zm-13.44 1.92h-1.92v1.92h1.92zm9.6-3.84h-1.92v1.92h1.92zm-7.68.0h-3.84v1.92h3.84zm15.36 13.44h3.84v-1.92h-3.84zm-7.68-7.68h1.92v-1.92h-1.92zm-7.68 5.76h-3.84v1.92h3.84zm15.36-11.52h-1.92v1.92h1.92zm3.84.0h-1.92v1.92h1.92zm-3.84 9.6h3.84v-5.76h-3.84zm7.68-11.52v17.28c0 1.056-.864 1.92-1.92 1.92h-26.88c-1.056.0-1.92-.864-1.92-1.92v-17.28c0-1.056.864-1.92 1.92-1.92h26.88c1.056.0 1.92.864 1.92 1.92zm-1.92.0h-26.88v17.28h26.88zm-17.28 7.68h1.92v-1.92h-1.92zm0-5.76h-1.92v1.92h1.92zm-3.84 5.76h1.92v-1.92h-1.92zm1.92 7.68h11.52v-1.92h-11.52zm9.6-7.68h1.92v-1.92h-1.92zm-13.44 1.92h-1.92v1.92h1.92zm9.6.0v1.92h1.92v-1.92zm-3.84.0v1.92h1.92v-1.92zm-1.92.0h-1.92v1.92h1.92zm9.6 1.92h1.92v-1.92h-1.92z" style="fill-rule:evenodd;stroke-width:1.92000008" inkscape:connector-curvature="0" /></g></svg>