<svg viewBox="0 0 60 60" xmlns="http://www.w3.org/2000/svg"><g fill="#fff" fill-rule="evenodd" stroke="#05487a" stroke-linecap="round" stroke-linejoin="round" stroke-width="1.5"><rect transform="matrix(.91084 0 0 .91084 .54482 .20793)" x="2.3668" y="2.6248" width="16.915" height="16.915" rx="1.9266"/><rect transform="matrix(.91084 0 0 .91084 .54482 .20793)" x="23.901" y="2.6248" width="16.915" height="16.915" rx="1.9266"/><rect x="2.7006" y="22.611" width="15.407" height="15.407" rx="1.7548"/><rect x="22.315" y="22.611" width="15.407" height="15.407" rx="1.7548"/><rect transform="matrix(.91084 0 0 .91084 .54482 .20793)" x="46.066" y="2.6248" width="16.915" height="16.915" rx="1.9266"/><rect x="42.504" y="22.611" width="15.407" height="15.407" rx="1.7548"/><rect x="2.7006" y="42.185" width="15.407" height="15.407" rx="1.7548"/><rect x="22.315" y="42.185" width="15.407" height="15.407" rx="1.7548"/><rect x="42.504" y="42.185" width="15.407" height="15.407" rx="1.7548"/></g><g fill="#000" font-family="sans-serif" font-size="32" font-weight="400" letter-spacing="0" word-spacing="0"><text x="5.4830737" y="16.225298" style="line-height:1.25"><tspan x="5.4830737" y="16.225298" fill="red" font-size="16">1</tspan></text><text x="25.437866" y="16.135412" style="line-height:1.25"><tspan x="25.437866" y="16.135412" fill="red" font-size="16">0</tspan></text><text x="45.437866" y="16.135412" style="line-height:1.25"><tspan x="45.437866" y="16.135412" fill="red" font-size="16">0</tspan></text></g><rect x="27.144" y="34.178" width="26.88" height="17.28" rx="0" ry="0" fill="#fff" stroke-miterlimit="0" stroke-width="0" style="paint-order:markers stroke fill"/><g transform="translate(-.52385)"><path d="m27.144 34.178h26.88v17.28h-26.88z" fill="#fff" stroke="#fff"/><path d="m44.424 38.018h-1.92v-1.92h1.92zm-13.44 1.92h-1.92v1.92h1.92zm9.6-3.84h-1.92v1.92h1.92zm-7.68.0h-3.84v1.92h3.84zm15.36 13.44h3.84v-1.92h-3.84zm-7.68-7.68h1.92v-1.92h-1.92zm-7.68 5.76h-3.84v1.92h3.84zm15.36-11.52h-1.92v1.92h1.92zm3.84.0h-1.92v1.92h1.92zm-3.84 9.6h3.84v-5.76h-3.84zm7.68-11.52v17.28c0 1.056-.864 1.92-1.92 1.92h-26.88c-1.056.0-1.92-.864-1.92-1.92v-17.28c0-1.056.864-1.92 1.92-1.92h26.88c1.056.0 1.92.864 1.92 1.92zm-1.92.0h-26.88v17.28h26.88zm-17.28 7.68h1.92v-1.92h-1.92zm0-5.76h-1.92v1.92h1.92zm-3.84 5.76h1.92v-1.92h-1.92zm1.92 7.68h11.52v-1.92h-11.52zm9.6-7.68h1.92v-1.92h-1.92zm-13.44 1.92h-1.92v1.92h1.92zm9.6.0v1.92h1.92v-1.92zm-3.84.0v1.92h1.92v-1.92zm-1.92.0h-1.92v1.92h1.92zm9.6 1.92h1.92v-1.92h-1.92z" fill-rule="evenodd" stroke-width="1.92"/></g></svg>