<?xml version="1.0" standalone="no"?>
<!DOCTYPE svg PUBLIC "-//W3C//DTD SVG 20010904//EN"
 "http://www.w3.org/TR/2001/REC-SVG-20010904/DTD/svg10.dtd">
<svg version="1.0" xmlns="http://www.w3.org/2000/svg"
 width="700.000000pt" height="700.000000pt" viewBox="0 0 700.000000 700.000000"
 preserveAspectRatio="xMidYMid meet">
<metadata>
Created by potrace 1.11, written by Peter Selinger 2001-2013
</metadata>
<g transform="translate(0.000000,700.000000) scale(0.100000,-0.100000)"
fill="#000000" stroke="none">
<path d="M476 6770 c-104 -18 -197 -96 -225 -190 -8 -26 -11 -257 -11 -782 0
-827 -2 -797 67 -877 19 -23 58 -54 87 -69 l51 -27 770 0 770 0 41 22 c63 34
97 66 129 125 l30 53 3 754 c3 831 5 803 -59 889 -21 28 -51 52 -97 74 l-67
33 -720 2 c-396 0 -742 -3 -769 -7z m1520 -192 l34 -38 0 -735 c0 -808 2 -778
-60 -810 -25 -13 -126 -15 -757 -15 -713 0 -729 1 -761 20 -65 40 -63 15 -60
813 3 676 4 724 21 748 41 61 12 59 815 56 l734 -2 34 -37z"/>
<path d="M1010 6436 l-155 -32 -3 -82 c-2 -45 1 -82 6 -82 5 0 76 14 157 30
81 17 150 30 152 30 1 0 3 -234 3 -520 l0 -520 -150 0 -150 0 0 -75 0 -75 390
0 390 0 0 75 0 75 -150 0 -150 0 0 605 0 605 -92 -1 c-62 -1 -146 -12 -248
-33z"/>
<path d="M2763 6770 c-93 -14 -174 -76 -214 -165 -17 -38 -19 -86 -19 -805 l0
-765 24 -50 c30 -65 104 -131 169 -150 76 -23 1479 -22 1555 0 74 22 131 70
167 140 l30 59 3 744 c2 643 0 752 -13 797 -20 69 -87 144 -157 176 l-53 24
-720 1 c-396 1 -743 -2 -772 -6z m1487 -165 c15 -8 38 -27 49 -41 21 -27 21
-31 21 -761 0 -670 -1 -737 -17 -763 -37 -64 -3 -61 -814 -58 -721 3 -737 3
-759 23 -51 45 -50 35 -50 797 0 797 -3 764 70 800 32 17 89 18 753 18 614 0
722 -2 747 -15z"/>
<path d="M3447 6490 c-212 -54 -333 -265 -352 -619 -16 -282 46 -529 164 -654
92 -98 239 -143 378 -118 221 39 347 214 384 534 13 112 7 327 -11 417 -46
224 -144 369 -287 424 -56 21 -217 30 -276 16z m178 -141 c95 -24 169 -128
200 -282 37 -187 28 -470 -21 -615 -47 -140 -111 -203 -214 -210 -88 -6 -122
4 -176 51 -95 84 -136 235 -136 502 0 172 11 264 43 358 54 162 163 231 304
196z"/>
<path d="M5125 6770 c-70 -10 -125 -41 -174 -96 -74 -84 -72 -57 -69 -896 l3
-744 30 -59 c36 -70 93 -118 167 -140 76 -22 1479 -23 1555 0 65 19 139 85
169 150 l24 50 0 756 c0 838 2 808 -66 887 -19 23 -60 53 -92 69 l-57 28 -720
1 c-396 1 -743 -1 -770 -6z m1484 -168 c19 -9 43 -33 53 -52 17 -33 18 -75 18
-748 0 -762 1 -752 -50 -797 -22 -20 -38 -20 -759 -23 -811 -3 -777 -6 -814
58 -16 26 -17 93 -17 762 0 810 -4 757 64 799 30 18 60 19 751 19 666 0 723
-1 754 -18z"/>
<path d="M5769 6487 c-148 -42 -256 -172 -311 -372 -19 -70 -21 -107 -22 -305
-1 -259 10 -330 74 -465 69 -147 167 -224 318 -247 191 -30 360 59 447 235 66
136 78 204 79 452 1 259 -11 328 -79 471 -53 109 -123 180 -213 215 -70 27
-223 36 -293 16z m204 -143 c60 -20 126 -92 156 -171 38 -99 54 -237 48 -428
-10 -349 -96 -504 -280 -505 -207 -1 -299 201 -284 624 8 235 42 350 130 434
61 59 143 76 230 46z"/>
<path d="M455 4441 c-55 -14 -112 -50 -153 -96 -76 -86 -73 -49 -70 -901 l3
-759 30 -53 c32 -59 66 -91 129 -125 l41 -22 761 -3 c750 -2 763 -2 817 18 65
24 147 106 169 167 10 30 13 190 13 793 0 719 -1 757 -19 804 -25 66 -84 128
-149 157 l-52 24 -745 2 c-410 0 -758 -2 -775 -6z m1519 -184 c57 -38 56 -24
56 -792 0 -778 2 -756 -62 -795 -32 -20 -45 -20 -765 -18 l-733 3 -32 33 -33
32 -3 733 -2 733 23 35 c13 19 38 39 57 46 26 9 213 12 750 10 675 -2 718 -3
744 -20z"/>
<path d="M2735 4439 c-55 -13 -128 -63 -160 -109 -56 -80 -54 -54 -55 -871 l0
-756 31 -61 c51 -104 128 -153 252 -160 l77 -5 0 -158 0 -159 -73 0 c-90 0
-158 -30 -216 -96 -74 -84 -71 -49 -71 -884 0 -837 -3 -800 73 -886 23 -26 63
-57 92 -70 l50 -24 767 0 766 0 63 33 c75 38 132 110 148 188 6 28 11 117 11
199 l0 150 189 0 189 0 4 -177 c3 -164 5 -182 27 -227 29 -60 83 -115 136
-141 39 -19 67 -20 815 -23 l774 -2 53 25 c29 15 70 46 92 71 74 84 71 49 71
884 0 829 2 799 -66 879 -60 70 -114 94 -216 99 l-88 4 0 158 0 157 83 5 c123
7 198 51 252 150 l30 53 0 780 0 780 -23 42 c-30 57 -80 105 -138 134 l-49 24
-765 0 -765 0 -57 -28 c-64 -32 -111 -80 -142 -146 -20 -45 -21 -62 -24 -538
l-3 -493 -189 0 -189 0 -3 493 -3 492 -28 57 c-32 64 -80 111 -146 142 -45 21
-56 21 -791 23 -436 1 -761 -3 -785 -8z m1526 -182 c14 -9 31 -29 37 -43 9
-18 12 -162 12 -499 l0 -475 -608 0 c-649 0 -663 -1 -731 -49 -17 -12 -43 -43
-58 -69 -28 -47 -28 -48 -31 -259 l-3 -213 -46 0 c-59 0 -106 23 -127 63 -16
29 -17 94 -14 763 3 716 3 732 23 754 45 51 30 50 800 47 669 -2 722 -3 746
-20z m2356 -3 c15 -11 34 -32 40 -45 10 -18 13 -194 13 -752 l0 -727 -34 -37
c-31 -34 -39 -37 -99 -41 l-65 -4 -4 208 c-4 234 -9 255 -73 317 -69 67 -67
67 -747 67 l-608 0 0 448 c0 246 3 464 7 485 7 43 50 93 86 100 12 2 345 4
739 3 711 -1 717 -1 745 -22z m-377 -2249 l0 -1005 -1565 0 -1565 0 0 1005 0
1005 1565 0 1565 0 0 -1005z m-3358 -543 l3 -529 30 -49 c19 -30 49 -60 79
-79 l49 -30 634 -3 633 -3 0 -165 0 -166 -34 -34 -34 -34 -731 0 c-803 0 -774
-2 -806 60 -23 44 -23 1456 0 1500 21 40 60 59 122 60 l52 0 3 -528z m3728
513 c62 -32 60 -4 60 -795 0 -625 -2 -725 -15 -750 -32 -62 -3 -60 -804 -60
l-729 0 -31 26 c-42 35 -51 77 -51 237 l0 137 608 0 c681 0 681 0 748 67 71
71 69 50 72 631 l3 522 55 0 c30 0 68 -7 84 -15z"/>
<path d="M3330 2675 l0 -115 223 2 222 3 3 113 3 112 -226 0 -225 0 0 -115z"/>
<path d="M4002 2678 l3 -113 110 0 110 0 0 110 0 110 -113 3 -113 3 3 -113z"/>
<path d="M4450 2675 l0 -115 110 0 110 0 0 115 0 115 -110 0 -110 0 0 -115z"/>
<path d="M4900 2675 l0 -115 110 0 110 0 0 115 0 115 -110 0 -110 0 0 -115z"/>
<path d="M5350 2675 l0 -115 110 0 110 0 0 115 0 115 -110 0 -110 0 0 -115z"/>
<path d="M5792 2678 l3 -113 110 0 110 0 3 113 3 112 -116 0 -116 0 3 -112z"/>
<path d="M3330 2230 l0 -110 110 0 110 0 0 110 0 110 -110 0 -110 0 0 -110z"/>
<path d="M3780 2230 l0 -110 110 0 110 0 0 110 0 110 -110 0 -110 0 0 -110z"/>
<path d="M4230 2230 l0 -110 110 0 110 0 0 110 0 110 -110 0 -110 0 0 -110z"/>
<path d="M4670 2230 l0 -110 115 0 115 0 0 110 0 110 -115 0 -115 0 0 -110z"/>
<path d="M5120 2230 l0 -110 115 0 115 0 0 110 0 110 -115 0 -115 0 0 -110z"/>
<path d="M5570 2005 l0 -335 225 0 225 0 0 335 0 335 -225 0 -225 0 0 -335z"/>
<path d="M3330 1780 l0 -110 110 0 110 0 0 110 0 110 -110 0 -110 0 0 -110z"/>
<path d="M3780 1780 l0 -110 110 0 110 0 0 110 0 110 -110 0 -110 0 0 -110z"/>
<path d="M4230 1780 l0 -110 110 0 110 0 0 110 0 110 -110 0 -110 0 0 -110z"/>
<path d="M4670 1780 l0 -110 115 0 115 0 0 110 0 110 -115 0 -115 0 0 -110z"/>
<path d="M5120 1780 l0 -110 115 0 115 0 0 110 0 110 -115 0 -115 0 0 -110z"/>
<path d="M3330 1330 l0 -110 225 0 225 0 0 110 0 110 -225 0 -225 0 0 -110z"/>
<path d="M4000 1330 l0 -110 675 0 675 0 0 110 0 110 -675 0 -675 0 0 -110z"/>
<path d="M5570 1330 l0 -110 225 0 225 0 0 110 0 110 -225 0 -225 0 0 -110z"/>
<path d="M414 2144 c-58 -21 -120 -77 -152 -138 l-27 -51 0 -775 0 -775 27
-51 c28 -53 76 -101 131 -131 30 -17 87 -18 797 -21 546 -2 777 0 806 8 66 19
134 77 169 145 l30 59 0 765 0 766 -28 57 c-33 67 -91 121 -155 142 -66 23
-1534 22 -1598 0z m1561 -176 c56 -44 55 -28 55 -788 0 -760 1 -744 -55 -788
l-28 -22 -729 0 c-809 0 -775 -3 -804 65 -12 29 -14 153 -14 743 0 502 3 719
11 741 7 18 26 41 43 52 30 18 61 19 762 19 l731 0 28 -22z"/>
</g>
</svg>
